<svg width="92" height="91" viewBox="0 0 92 91" fill="none" xmlns="http://www.w3.org/2000/svg">
<path d="M2.55681 52.6085L8.53095 53.5876C9.4748 58.1621 11.2811 62.5152 13.8533 66.4141L10.3155 71.3517C9.58142 72.351 9.59404 73.7147 10.3466 74.7003C11.2386 75.7908 12.1865 76.8343 13.1862 77.827C14.1948 78.8372 15.2345 79.7682 16.3052 80.6682C17.2914 81.4222 18.657 81.4348 19.657 80.6992L24.5915 77.1598C28.4866 79.7335 32.8366 81.541 37.4086 82.4853L38.3863 88.4641C38.5725 89.6871 39.5483 90.6377 40.7759 90.7916C41.6262 90.8879 42.4828 90.9468 43.358 90.9903C43.783 91.011 44.1981 90.8576 44.5073 90.5653C44.8165 90.2731 44.9933 89.8673 44.9966 89.4417V77.0063C44.9921 76.168 44.3262 75.4829 43.4884 75.4545C27.8075 74.6416 15.5101 61.6902 15.5101 45.9883C15.5101 30.2864 27.8075 17.3349 43.4884 16.522C44.3262 16.4937 44.9921 15.8087 44.9966 14.9703V2.54565C44.9945 2.12035 44.8189 1.71428 44.5104 1.42129C44.202 1.12829 43.7874 0.974064 43.3625 0.993887C42.4904 1.03008 41.6283 1.0912 40.7757 1.17695C39.5479 1.34425 38.576 2.29861 38.3861 3.52314L37.4085 9.50193C32.8366 10.4476 28.4867 12.2554 24.5913 14.829L19.6569 11.288C18.6568 10.5523 17.2913 10.5649 16.3051 11.3191C15.2177 12.2123 14.1766 13.1607 13.1861 14.1602C12.1789 15.1457 11.2307 16.1897 10.3464 17.2869C9.59073 18.2737 9.57812 19.641 10.3153 20.6416L13.8532 25.5793C11.2816 29.4768 9.47525 33.8281 8.5308 38.4011L2.55666 39.3787C1.33333 39.5656 0.382872 40.542 0.229093 41.77C-0.0763642 44.5547 -0.0763642 47.3645 0.229093 50.1492C0.367104 51.3974 1.31787 52.4021 2.55681 52.6085Z" fill="#EDBD6B"/>
<path d="M43.5128 22.7644C31.2538 23.541 21.7085 33.7101 21.7085 45.9936C21.7085 58.277 31.254 68.4462 43.5128 69.2227C43.9028 69.2389 44.2824 69.0943 44.5628 68.8226C44.8432 68.551 44.9998 68.1761 44.9962 67.7858V24.2013C45 23.8108 44.8433 23.4361 44.5628 23.1645C44.2824 22.8928 43.9028 22.7482 43.5128 22.7644Z" fill="#EDBD6B"/>
<path d="M55.8582 24.2697H48.0997V27.3731H55.8582C58.4261 27.3654 60.5057 25.2858 60.5134 22.7179V13.1221C62.651 12.3665 63.9332 10.1807 63.5498 7.94605C63.1664 5.71143 61.229 4.07812 58.9616 4.07812C56.6944 4.07812 54.7569 5.71143 54.3735 7.94605C53.9901 10.1807 55.2723 12.3665 57.4099 13.1221V22.7179C57.4099 23.575 56.7152 24.2697 55.8582 24.2697Z" fill="#EDBD6B"/>
<path d="M48.0995 33.5798H63.6167C64.4737 33.5798 65.1684 32.8851 65.1684 32.0281C65.1684 31.171 64.4737 30.4763 63.6167 30.4763H48.0995V33.5798Z" fill="#EDBD6B"/>
<path d="M48.0995 67.7174H55.858C56.7151 67.7174 57.4098 68.4121 57.4098 69.2692V78.8649C55.2722 79.6206 53.99 81.8064 54.3734 84.041C54.7568 86.2756 56.6942 87.9089 58.9615 87.9089C61.2287 87.9089 63.1663 86.2756 63.5497 84.041C63.9331 81.8064 62.6509 79.6206 60.5133 78.8649V69.2692C60.5056 66.7013 58.426 64.6217 55.8582 64.614H48.0996V67.7174H48.0995Z" fill="#EDBD6B"/>
<path d="M71.3752 52.2004H48.0995V55.3038H71.3752C72.2322 55.3038 72.927 55.9985 72.927 56.8556V64.8997C70.7894 65.6554 69.5072 67.8412 69.8906 70.0758C70.274 72.3104 72.2114 73.9438 74.4787 73.9438C76.7459 73.9438 78.6835 72.3104 79.0669 70.0758C79.4503 67.8412 78.1681 65.6554 76.0305 64.8997V56.8556C76.0227 54.2877 73.943 52.2081 71.3752 52.2004Z" fill="#EDBD6B"/>
<path d="M86.8924 41.3384C84.9267 41.3465 83.1779 42.5884 82.5227 44.4418H48.0995V47.5451H82.5227C83.3156 49.7712 85.6528 51.0478 87.9544 50.512C90.256 49.9762 91.789 47.7986 91.5172 45.4512C91.2455 43.104 89.2554 41.3342 86.8924 41.3384Z" fill="#EDBD6B"/>
<path d="M65.1684 59.959C65.1684 59.1019 64.4737 58.4072 63.6167 58.4072H48.0995V61.5106H63.6167C64.4737 61.5108 65.1684 60.816 65.1684 59.959Z" fill="#EDBD6B"/>
<path d="M76.0304 35.1316V27.0875C78.168 26.3318 79.4502 24.146 79.0668 21.9114C78.6834 19.6768 76.7459 18.0435 74.4786 18.0435C72.2114 18.0435 70.2738 19.6768 69.8904 21.9114C69.507 24.146 70.7892 26.3318 72.9268 27.0875V35.1316C72.9268 35.9887 72.2321 36.6834 71.3751 36.6834H48.0994V39.7868H71.3751C73.9431 39.779 76.0227 37.6993 76.0304 35.1316Z" fill="#EDBD6B"/>
</svg>
