<svg width="110" height="91" viewBox="0 0 110 91" fill="none" xmlns="http://www.w3.org/2000/svg">
<path fill-rule="evenodd" clip-rule="evenodd" d="M56.4846 1.01596C47.7326 0.724503 38.8903 3.11228 31.2562 8.20804C22.6821 13.9373 16.6901 22.3979 13.9301 31.856C13.1679 31.7629 12.2552 31.804 11.1715 32.1105C7.12527 33.2585 4.08205 36.5741 2.7137 39.4941C0.938939 43.2995 0.190448 48.3323 0.979989 53.528C1.76406 58.7072 3.95206 62.9765 6.68877 65.627C9.43369 68.2789 12.533 69.1409 15.6118 68.4937C20.1958 67.5153 22.4686 66.7832 21.8269 62.5126L18.7194 41.8108C19.3461 30.6067 25.1465 20.0594 34.8482 13.5734C47.8339 4.89936 64.8589 5.45491 77.2453 14.9636C85.8618 21.57 90.8645 31.4687 91.442 41.86L89.269 56.3413C84.4223 69.6048 72.4068 78.7919 58.5029 80.096H49.2446C46.8555 80.096 44.9316 82.0199 44.9316 84.4063V86.6805C44.9316 89.0683 46.8555 90.9922 49.2446 90.9922H60.9181C63.3059 90.9922 65.2216 89.0683 65.2216 86.6805V85.4914C75.7059 82.9326 84.8575 76.489 90.8166 67.503L94.5564 68.4951C97.5996 69.2846 100.736 68.2789 103.479 65.6283C106.216 62.9765 108.403 58.7086 109.188 53.5294C109.98 48.3337 109.21 43.3091 107.456 39.4955C105.695 35.6819 103.072 33.2599 100.043 32.391C98.775 32.0256 97.3984 31.8915 96.2176 31.856C93.7217 23.3037 88.5835 15.526 81.1779 9.84733C73.8969 4.26033 65.2366 1.30332 56.4846 1.01596Z" fill="#EDBD6B"/>
<path fill-rule="evenodd" clip-rule="evenodd" d="M70.1476 38.2598C73.2332 38.2598 75.7346 40.7612 75.7414 43.855C75.7346 46.9407 73.2332 49.4489 70.1476 49.4489C67.0537 49.4489 64.5455 46.9407 64.5455 43.855C64.5455 40.7625 67.0551 38.2598 70.1476 38.2598ZM55.082 38.2598C58.1745 38.2598 60.6758 40.7612 60.6758 43.855C60.6758 46.9407 58.1745 49.4489 55.082 49.4489C51.9868 49.4489 49.4854 46.9407 49.4854 43.855C49.4854 40.7625 51.9868 38.2598 55.082 38.2598ZM40.0219 38.2598C43.1075 38.2598 45.6157 40.7612 45.6157 43.855C45.6157 46.9407 43.1075 49.4489 40.0219 49.4489C36.9294 49.4489 34.4267 46.9407 34.4267 43.855C34.4267 40.7625 36.9294 38.2598 40.0219 38.2598ZM55.082 14.2288C38.6754 14.2288 25.4543 27.0147 25.4543 43.855C25.4543 51.9434 28.5126 59.0917 33.4948 64.3366L31.7269 72.2621C31.144 74.8702 32.9529 76.6244 35.2969 75.319L43.0363 71.0018C46.7145 72.5987 50.7826 73.4813 55.082 73.4813C71.494 73.4813 84.7069 60.7036 84.7069 43.855C84.7069 27.0147 71.494 14.2288 55.082 14.2288Z" fill="#EDBD6B"/>
</svg>
