<svg width="90" height="91" viewBox="0 0 90 91" fill="none" xmlns="http://www.w3.org/2000/svg">
<path d="M87.8619 36.1996L81.3002 34.8874C80.5783 32.4945 79.6215 30.184 78.4429 27.9867L82.1542 22.4199C82.8515 21.374 82.7137 19.9815 81.8247 19.0929L71.8811 9.14914C70.9924 8.26039 69.5999 8.12258 68.5541 8.81955L62.987 12.5308C60.7899 11.3524 58.4794 10.3958 56.0863 9.67367L54.7741 3.11176C54.5278 1.87936 53.4456 0.992188 52.1887 0.992188H38.1262C36.8694 0.992188 35.7871 1.87936 35.5407 3.11176L34.2284 9.67367C31.8354 10.3958 29.5249 11.3526 27.3278 12.5308L21.7606 8.81955C20.7151 8.12258 19.3224 8.26039 18.4336 9.14914L8.49003 19.0929C7.6011 19.9817 7.46329 21.3742 8.16061 22.4199L11.8719 27.9867C10.6933 30.184 9.73667 32.4945 9.01456 34.8874L2.45282 36.1996C1.22042 36.446 0.333252 37.5283 0.333252 38.7852V52.8477C0.333252 54.1045 1.22042 55.1868 2.453 55.433L9.01474 56.7454C9.73667 59.1382 10.6934 61.4486 11.8721 63.6459L8.16079 69.2129C7.46347 70.2586 7.60145 71.6512 8.4902 72.5399L18.4338 82.4835C19.3227 83.3724 20.7151 83.5102 21.7608 82.8131L27.2139 79.1779V62.6255C23.0844 58.2301 20.5481 52.3247 20.5481 45.8164C20.5481 32.225 31.5661 21.207 45.1575 21.207C58.7489 21.207 69.7668 32.225 69.7668 45.8164C69.7668 52.3247 67.2305 58.2301 63.101 62.6255V79.1779L68.5541 82.8131C69.0003 83.1105 69.5095 83.2561 70.0157 83.2561C70.6962 83.2561 71.3716 82.9933 71.881 82.4837L81.8246 72.5401C82.7133 71.6513 82.8513 70.2588 82.154 69.2131L78.4427 63.6461C79.6213 61.4488 80.5779 59.1383 81.3 56.7456L87.8618 55.4332C89.0945 55.1868 89.9817 54.1045 89.9817 52.8477V38.7852C89.9817 37.5283 89.0945 36.446 87.8619 36.1996Z" fill="#EDBD6B"/>
<path d="M53.5104 31.3692C52.1834 30.6005 50.4998 31.4162 50.2806 32.9339L48.6731 44.0587H41.6418L40.0345 32.9339C39.8151 31.4162 38.1317 30.6005 36.8047 31.3692C31.6562 34.3514 28.4583 39.8874 28.4583 45.8165C28.4583 52.2417 32.0565 57.9894 37.8487 60.8165L38.1262 60.952V88.3556C38.1262 89.8118 39.3068 90.9923 40.7629 90.9923H49.552C51.0082 90.9923 52.1887 89.8118 52.1887 88.3556V60.952L52.4663 60.8165C58.2584 57.9894 61.8567 52.2417 61.8567 45.8165C61.8567 39.8874 58.6587 34.3514 53.5104 31.3692Z" fill="#EDBD6B"/>
</svg>
