<svg width="41" height="42" viewBox="0 0 41 42" fill="none" xmlns="http://www.w3.org/2000/svg">
<circle cx="20.4638" cy="20.5878" r="19.9641" stroke="#EDBD6B" stroke-width="0.999306"/>
<mask id="mask0_0_301" style="mask-type:alpha" maskUnits="userSpaceOnUse" x="8" y="9" width="24" height="23">
<rect x="8.97412" y="9.09424" width="22.4347" height="22.4347" fill="white"/>
</mask>
<g mask="url(#mask0_0_301)">
<path d="M12.7119 27.79C12.1978 27.79 11.7578 27.607 11.392 27.2412C11.0256 26.8748 10.8423 26.4345 10.8423 25.9204V14.7031C10.8423 14.1889 11.0256 13.749 11.392 13.3831C11.7578 13.0167 12.1978 12.8335 12.7119 12.8335H27.6684C28.1825 12.8335 28.6228 13.0167 28.9892 13.3831C29.355 13.749 29.5379 14.1889 29.5379 14.7031V25.9204C29.5379 26.4345 29.355 26.8748 28.9892 27.2412C28.6228 27.607 28.1825 27.79 27.6684 27.79H12.7119ZM20.1901 21.2465L12.7119 16.5726V25.9204H27.6684V16.5726L20.1901 21.2465ZM20.1901 19.3769L27.6684 14.7031H12.7119L20.1901 19.3769ZM12.7119 16.5726V14.7031V25.9204V16.5726Z" fill="#EDBD6B"/>
</g>
</svg>
