<svg width="41" height="42" viewBox="0 0 41 42" fill="none" xmlns="http://www.w3.org/2000/svg">
<circle cx="20.4638" cy="20.8961" r="19.9641" stroke="black" stroke-width="0.999306"/>
<mask id="mask0_0_266" style="mask-type:alpha" maskUnits="userSpaceOnUse" x="8" y="9" width="24" height="23">
<rect x="8.97414" y="9.40283" width="22.4347" height="22.4347" fill="white"/>
</mask>
<g mask="url(#mask0_0_266)">
<path d="M12.7119 28.0983C12.1978 28.0983 11.7578 27.9154 11.392 27.5496C11.0256 27.1832 10.8424 26.7429 10.8424 26.2287V15.0114C10.8424 14.4973 11.0256 14.0573 11.392 13.6915C11.7578 13.3251 12.1978 13.1418 12.7119 13.1418H27.6684C28.1825 13.1418 28.6228 13.3251 28.9892 13.6915C29.355 14.0573 29.538 14.4973 29.538 15.0114V26.2287C29.538 26.7429 29.355 27.1832 28.9892 27.5496C28.6228 27.9154 28.1825 28.0983 27.6684 28.0983H12.7119ZM20.1902 21.5549L12.7119 16.881V26.2287H27.6684V16.881L20.1902 21.5549ZM20.1902 19.6853L27.6684 15.0114H12.7119L20.1902 19.6853ZM12.7119 16.881V15.0114V26.2287V16.881Z" fill="black"/>
</g>
</svg>
