<svg width="91" height="91" viewBox="0 0 91 91" fill="none" xmlns="http://www.w3.org/2000/svg">
<path d="M45.6648 10.7642C44.2086 10.7642 43.0281 11.9447 43.0281 13.4009C43.0281 14.857 44.2086 16.0376 45.6648 16.0376C54.3895 16.0376 61.4877 23.1346 61.4877 31.8579C61.4877 33.3141 62.6683 34.4946 64.1245 34.4946C65.5806 34.4946 66.7612 33.3141 66.7612 31.8579C66.7612 20.2268 57.2975 10.7642 45.6648 10.7642Z" fill="#EDBD6B"/>
<path d="M38.8701 0.927268C26.9574 3.41651 17.2982 12.9832 14.7566 24.9699C12.6105 35.0918 15.2551 45.2537 22.0123 52.8501C25.3155 56.5631 27.2097 61.4644 27.2097 66.3109V71.5843C27.2097 75.0929 29.5066 78.0736 32.6752 79.106C33.7173 85.2627 39.061 90.2169 45.6667 90.2169C52.2706 90.2169 57.6158 85.2643 58.6582 79.106C61.8268 78.0736 64.1237 75.0929 64.1237 71.5841V66.3107C64.1237 61.4547 66.0243 56.6123 69.4749 52.6755C74.5258 46.9134 77.3073 39.52 77.3073 31.8577C77.3073 11.8951 59.035 -3.28551 38.8701 0.927268ZM45.6667 84.9437C42.2773 84.9437 39.3055 82.6114 38.2081 79.4769H53.1251C52.0279 82.6114 49.0561 84.9437 45.6667 84.9437ZM58.8503 71.5843C58.8503 73.0382 57.6675 74.221 56.2136 74.221H35.1198C33.6659 74.221 32.4831 73.0382 32.4831 71.5843V68.9476H58.8503V71.5843ZM65.5092 49.1998C61.8319 53.3952 59.5694 58.4541 58.9953 63.6741H32.3386C31.7652 58.4513 29.5085 53.3426 25.9528 49.3452C20.3212 43.0142 18.1206 34.5284 19.9155 26.0638C22.0106 16.1824 30.0614 8.15539 39.9489 6.08944C56.8281 2.56203 72.0339 15.238 72.0339 31.8577C72.0339 38.2407 69.7167 44.3996 65.5092 49.1998Z" fill="#EDBD6B"/>
<path d="M8.57684 31.8577H3.30341C1.84723 31.8577 0.666687 33.0382 0.666687 34.4944C0.666687 35.9506 1.84723 37.1311 3.30341 37.1311H8.57684C10.033 37.1311 11.2136 35.9506 11.2136 34.4944C11.2136 33.0382 10.033 31.8577 8.57684 31.8577Z" fill="#EDBD6B"/>
<path d="M9.66895 18.6742L5.94011 14.9454C4.91056 13.9157 3.24099 13.9157 2.21126 14.9454C1.18153 15.9751 1.18153 17.6445 2.21126 18.6742L5.94011 22.4031C6.96966 23.4328 8.63923 23.433 9.66895 22.4031C10.6987 21.3734 10.6987 19.704 9.66895 18.6742Z" fill="#EDBD6B"/>
<path d="M9.66895 46.586C8.63923 45.5563 6.96966 45.5563 5.94011 46.586L2.21126 50.3149C1.18153 51.3446 1.18153 53.014 2.21126 54.0437C3.24081 55.0734 4.91038 55.0736 5.94011 54.0437L9.66895 50.3149C10.6987 49.2851 10.6987 47.6157 9.66895 46.586Z" fill="#EDBD6B"/>
<path d="M88.03 31.8577H82.7565C81.3004 31.8577 80.1198 33.0382 80.1198 34.4944C80.1198 35.9506 81.3004 37.1311 82.7565 37.1311H88.03C89.4861 37.1311 90.6667 35.9506 90.6667 34.4944C90.6667 33.0382 89.4861 31.8577 88.03 31.8577Z" fill="#EDBD6B"/>
<path d="M89.1221 14.9454C88.0925 13.9157 86.423 13.9157 85.3932 14.9454L81.6644 18.6742C80.6347 19.704 80.6347 21.3734 81.6644 22.4031C82.6939 23.4326 84.3635 23.4328 85.3932 22.4031L89.1221 18.6742C90.1518 17.6445 90.1518 15.9751 89.1221 14.9454Z" fill="#EDBD6B"/>
<path d="M89.1221 50.3149L85.3932 46.586C84.3637 45.5563 82.6941 45.5563 81.6644 46.586C80.6347 47.6157 80.6347 49.2851 81.6644 50.3149L85.3932 54.0437C86.4228 55.0733 88.0924 55.0734 89.1221 54.0437C90.1518 53.014 90.1518 51.3446 89.1221 50.3149Z" fill="#EDBD6B"/>
</svg>
