<svg width="107" height="91" viewBox="0 0 107 91" fill="none" xmlns="http://www.w3.org/2000/svg">
<path d="M90.7824 48.8101H82.5773C83.4136 51.0999 83.8705 53.571 83.8705 56.1465V87.1572C83.8705 88.231 83.6836 89.2618 83.3436 90.2204H96.9085C101.976 90.2204 106.098 86.0979 106.098 81.0309V64.1256C106.098 55.6807 99.2275 48.8101 90.7824 48.8101Z" fill="#EDBD6B"/>
<path d="M22.2276 56.147C22.2276 53.5713 22.6845 51.1003 23.5209 48.8105H15.3157C6.87064 48.8105 0 55.6812 0 64.1263V81.0316C0 86.0986 4.12226 90.2211 9.18944 90.2211H22.7546C22.4145 89.262 22.2276 88.2315 22.2276 87.1577V56.147Z" fill="#EDBD6B"/>
<path d="M62.4286 40.8313H43.6705C35.2254 40.8313 28.3548 47.7019 28.3548 56.147V87.1577C28.3548 88.8493 29.7261 90.2209 31.4179 90.2209H74.6812C76.3729 90.2209 77.7443 88.8495 77.7443 87.1577V56.147C77.7443 47.7019 70.8737 40.8313 62.4286 40.8313Z" fill="#EDBD6B"/>
<path d="M53.0488 0.220947C42.8924 0.220947 34.6297 8.48369 34.6297 18.6402C34.6297 25.5293 38.432 31.546 44.0473 34.7049C46.7107 36.2031 49.7813 37.0593 53.0488 37.0593C56.3162 37.0593 59.3868 36.2031 62.0503 34.7049C67.6657 31.546 71.4678 25.5291 71.4678 18.6402C71.4678 8.4839 63.2051 0.220947 53.0488 0.220947Z" fill="#EDBD6B"/>
<path d="M20.7043 17.3892C13.1086 17.3892 6.92921 23.5685 6.92921 31.1642C6.92921 38.7599 13.1086 44.9393 20.7043 44.9393C22.631 44.9393 24.4657 44.5401 26.1324 43.8227C29.014 42.5821 31.3901 40.386 32.8603 37.6351C33.8923 35.7044 34.4793 33.5019 34.4793 31.1642C34.4793 23.5687 28.3 17.3892 20.7043 17.3892Z" fill="#EDBD6B"/>
<path d="M85.3923 17.3889C77.7966 17.3889 71.6173 23.5683 71.6173 31.164C71.6173 33.5018 72.2043 35.7044 73.2363 37.6349C74.7065 40.3859 77.0825 42.5821 79.9642 43.8225C81.6308 44.5399 83.4656 44.939 85.3923 44.939C92.988 44.939 99.1674 38.7597 99.1674 31.164C99.1674 23.5683 92.988 17.3889 85.3923 17.3889Z" fill="#EDBD6B"/>
</svg>
