<svg width="91" height="91" viewBox="0 0 91 91" fill="none" xmlns="http://www.w3.org/2000/svg">
<path d="M52.062 20.7229C49.8815 20.1253 47.6176 19.8222 45.3333 19.8222C31.3283 19.8222 19.9345 31.216 19.9345 45.221C19.9345 59.226 31.3283 70.6198 45.3333 70.6198C59.3383 70.6198 70.7321 59.226 70.7321 45.221C70.7321 42.9367 70.429 40.6728 69.8314 38.4923C69.4207 36.9943 70.3023 35.447 71.8003 35.0364C73.2974 34.626 74.8455 35.5073 75.2561 37.0053C75.9865 39.6704 76.3571 42.4345 76.3571 45.221C76.3571 62.3275 62.4398 76.2448 45.3333 76.2448C28.2268 76.2448 14.3095 62.3275 14.3095 45.221C14.3095 28.1145 28.2268 14.1972 45.3333 14.1972C48.1199 14.1972 50.8839 14.5676 53.549 15.2981C54.7982 15.6406 55.6188 16.7736 55.6186 18.0094C55.6186 18.2553 55.5859 18.5053 55.5179 18.754C55.1074 20.252 53.5604 21.1341 52.062 20.7229ZM84.9927 30.5327C83.5033 30.9738 82.6532 32.5384 83.0942 34.028C84.1653 37.6455 84.7083 41.4113 84.7083 45.221C84.7083 66.9324 67.0447 84.5959 45.3333 84.5959C23.6219 84.5959 5.95834 66.9324 5.95834 45.221C5.95834 23.5096 23.6219 5.84604 45.3333 5.84604C49.1432 5.84604 52.9089 6.38903 56.5258 7.45989C58.0154 7.9011 59.58 7.05067 60.021 5.56145C60.0998 5.29514 60.1374 5.02672 60.1374 4.76253C60.1377 3.54876 59.3459 2.4285 58.1226 2.06622C53.9868 0.841729 49.6841 0.221046 45.3333 0.221046C33.3134 0.221046 22.0128 4.90192 13.5134 13.4011C5.01422 21.9007 0.333344 33.2011 0.333344 45.221C0.333344 57.2409 5.01422 68.5415 13.5134 77.0409C22.0126 85.5402 33.3134 90.2209 45.3333 90.2209C57.3532 90.2209 68.6536 85.5401 77.1532 77.0409C85.6524 68.5415 90.3332 57.2409 90.3332 45.221C90.3332 40.8706 89.7124 36.5675 88.4879 32.4312C88.047 30.9418 86.4819 30.0924 84.9927 30.5327ZM45.3333 33.971C45.7469 33.971 46.1646 33.9939 46.5748 34.0389C48.1196 34.2088 49.5081 33.0939 49.6772 31.55C49.8466 30.0059 48.7324 28.6169 47.1883 28.4476C46.5748 28.3801 45.951 28.346 45.3333 28.346C36.0283 28.346 28.4583 35.916 28.4583 45.221C28.4583 54.526 36.0283 62.096 45.3333 62.096C54.6383 62.096 62.2083 54.526 62.2083 45.221C62.2083 43.6676 60.9492 42.4085 59.3958 42.4085C57.8424 42.4085 56.5833 43.6676 56.5833 45.221C56.5833 51.4243 51.5366 56.471 45.3333 56.471C39.13 56.471 34.0833 51.4243 34.0833 45.221C34.0833 39.0177 39.13 33.971 45.3333 33.971ZM59.6936 26.8837L61.0945 12.8305C61.1589 12.184 61.445 11.58 61.9044 11.1207L71.9806 1.04476C72.7569 0.268682 73.9132 0.0150304 74.9431 0.394893C75.9726 0.774756 76.6874 1.71905 76.7733 2.81329L77.5722 12.9822L87.741 13.781C88.8352 13.8669 89.7795 14.5817 90.1594 15.6112C90.5393 16.6409 90.2856 17.7976 89.5095 18.5736L79.4334 28.6496C78.9743 29.1089 78.3701 29.3951 77.7238 29.4594L63.671 30.8611L47.3221 47.2098C46.7728 47.7589 46.0531 48.0335 45.3333 48.0335C44.6133 48.0335 43.8938 47.7589 43.3447 47.2096C42.2462 46.1113 42.2462 44.3305 43.3447 43.2322L59.6936 26.8837ZM65.5319 25.0227L76.166 23.962L81.2171 18.911L74.7364 18.4019C73.3568 18.2934 72.2612 17.1976 72.1527 15.8183L71.6437 9.33705L66.5923 14.3883L65.5319 25.0227Z" fill="#EDBD6B"/>
</svg>
