<svg width="24" height="24" viewBox="0 0 24 24" fill="none" xmlns="http://www.w3.org/2000/svg">
<path d="M6.83438 0.0800781H16.4944C20.1744 0.0800781 23.1644 3.07008 23.1644 6.75008V16.4101C23.1644 18.1791 22.4617 19.8756 21.2108 21.1265C19.9599 22.3773 18.2634 23.0801 16.4944 23.0801H6.83438C3.15438 23.0801 0.164383 20.0901 0.164383 16.4101V6.75008C0.164383 4.98108 0.867113 3.28454 2.11798 2.03368C3.36885 0.782808 5.06539 0.0800781 6.83438 0.0800781ZM6.60438 2.38008C5.50639 2.38008 4.45336 2.81626 3.67696 3.59266C2.90056 4.36906 2.46438 5.42208 2.46438 6.52008V16.6401C2.46438 18.9286 4.31588 20.7801 6.60438 20.7801H16.7244C17.8224 20.7801 18.8754 20.3439 19.6518 19.5675C20.4282 18.7911 20.8644 17.7381 20.8644 16.6401V6.52008C20.8644 4.23158 19.0129 2.38008 16.7244 2.38008H6.60438ZM17.7019 4.10508C18.0831 4.10508 18.4488 4.25653 18.7183 4.52611C18.9879 4.7957 19.1394 5.16133 19.1394 5.54258C19.1394 5.92383 18.9879 6.28946 18.7183 6.55904C18.4488 6.82863 18.0831 6.98008 17.7019 6.98008C17.3206 6.98008 16.955 6.82863 16.6854 6.55904C16.4158 6.28946 16.2644 5.92383 16.2644 5.54258C16.2644 5.16133 16.4158 4.7957 16.6854 4.52611C16.955 4.25653 17.3206 4.10508 17.7019 4.10508ZM11.6644 5.83008C13.1894 5.83008 14.6519 6.43588 15.7302 7.51421C16.8086 8.59255 17.4144 10.0551 17.4144 11.5801C17.4144 13.1051 16.8086 14.5676 15.7302 15.6459C14.6519 16.7243 13.1894 17.3301 11.6644 17.3301C10.1394 17.3301 8.67685 16.7243 7.59852 15.6459C6.52018 14.5676 5.91438 13.1051 5.91438 11.5801C5.91438 10.0551 6.52018 8.59255 7.59852 7.51421C8.67685 6.43588 10.1394 5.83008 11.6644 5.83008ZM11.6644 8.13008C10.7494 8.13008 9.87186 8.49356 9.22486 9.14056C8.57786 9.78756 8.21438 10.6651 8.21438 11.5801C8.21438 12.4951 8.57786 13.3726 9.22486 14.0196C9.87186 14.6666 10.7494 15.0301 11.6644 15.0301C12.5794 15.0301 13.4569 14.6666 14.1039 14.0196C14.7509 13.3726 15.1144 12.4951 15.1144 11.5801C15.1144 10.6651 14.7509 9.78756 14.1039 9.14056C13.4569 8.49356 12.5794 8.13008 11.6644 8.13008Z" fill="black"/>
</svg>
