<svg width="35" height="35" viewBox="0 0 35 35" fill="none" xmlns="http://www.w3.org/2000/svg">
<path d="M27.6971 4.53955C28.461 4.53955 29.1936 4.84302 29.7338 5.38319C30.274 5.92336 30.5774 6.65599 30.5774 7.4199V27.5824C30.5774 28.3463 30.274 29.0789 29.7338 29.6191C29.1936 30.1593 28.461 30.4627 27.6971 30.4627H7.53462C6.7707 30.4627 6.03807 30.1593 5.4979 29.6191C4.95773 29.0789 4.65427 28.3463 4.65427 27.5824V7.4199C4.65427 6.65599 4.95773 5.92336 5.4979 5.38319C6.03807 4.84302 6.7707 4.53955 7.53462 4.53955H27.6971ZM26.977 26.8623V19.2293C26.977 17.9842 26.4824 16.79 25.6019 15.9095C24.7214 15.029 23.5272 14.5344 22.282 14.5344C21.0579 14.5344 19.6321 15.2833 18.9408 16.4066V14.808H14.9227V26.8623H18.9408V19.7622C18.9408 18.6533 19.8337 17.746 20.9427 17.746C21.4774 17.746 21.9902 17.9584 22.3684 18.3365C22.7465 18.7146 22.9589 19.2275 22.9589 19.7622V26.8623H26.977ZM10.2422 12.5469C10.8838 12.5469 11.4992 12.292 11.953 11.8383C12.4067 11.3845 12.6616 10.7691 12.6616 10.1274C12.6616 8.78807 11.5815 7.69354 10.2422 7.69354C9.59664 7.69354 8.97757 7.94996 8.52112 8.40641C8.06468 8.86285 7.80825 9.48193 7.80825 10.1274C7.80825 11.4668 8.90279 12.5469 10.2422 12.5469ZM12.244 26.8623V14.808H8.25471V26.8623H12.244Z" fill="black"/>
</svg>
