<svg width="41" height="42" viewBox="0 0 41 42" fill="none" xmlns="http://www.w3.org/2000/svg">
<circle cx="20.4638" cy="20.9887" r="19.9641" stroke="black" stroke-width="0.999306"/>
<mask id="mask0_0_259" style="mask-type:alpha" maskUnits="userSpaceOnUse" x="8" y="9" width="24" height="23">
<rect x="8.97414" y="9.49585" width="22.4347" height="22.4347" fill="white"/>
</mask>
<g mask="url(#mask0_0_259)">
<path d="M27.6231 29.1263C25.6133 29.1263 23.6543 28.6782 21.7461 27.7821C19.8373 26.8866 18.1469 25.7025 16.6749 24.2299C15.2024 22.758 14.0183 21.0676 13.1228 19.1588C12.2267 17.2506 11.7786 15.2916 11.7786 13.2818C11.7786 13.0014 11.8721 12.7677 12.059 12.5807C12.246 12.3938 12.4797 12.3003 12.7601 12.3003H16.5459C16.7641 12.3003 16.9588 12.3704 17.1302 12.5106C17.3016 12.6508 17.4028 12.83 17.434 13.0481L18.0416 16.3198C18.0728 16.538 18.069 16.7364 18.0304 16.9153C17.9911 17.0948 17.9014 17.2546 17.7612 17.3948L15.4943 19.685C16.1487 20.8068 16.9707 21.8584 17.9603 22.8399C18.9493 23.8214 20.0358 24.6705 21.2198 25.3872L23.4166 23.1905C23.5568 23.0502 23.74 22.9449 23.9662 22.8745C24.1918 22.8047 24.4137 22.7854 24.6318 22.8166L27.8568 23.4709C28.0749 23.5176 28.254 23.6226 28.3943 23.7859C28.5345 23.9498 28.6046 24.1408 28.6046 24.3589V28.1448C28.6046 28.4252 28.5111 28.6589 28.3242 28.8459C28.1372 29.0328 27.9035 29.1263 27.6231 29.1263ZM14.6063 17.909L16.1487 16.3666L15.7514 14.1698H13.6715C13.7494 14.8086 13.8585 15.4396 13.9987 16.0628C14.1389 16.686 14.3414 17.3014 14.6063 17.909ZM26.735 27.21V25.1535L24.5383 24.7095L22.9726 26.2752C23.5802 26.5401 24.1996 26.7504 24.8309 26.9062C25.4616 27.062 26.0963 27.1633 26.735 27.21Z" fill="black"/>
</g>
</svg>
