<svg width="45" height="41" viewBox="0 0 45 41" fill="none" xmlns="http://www.w3.org/2000/svg">
<path d="M17.2198 40.9924C26.7301 40.9924 34.4396 33.2828 34.4396 23.7726C34.4396 14.2623 26.7301 6.55276 17.2198 6.55276C7.70957 6.55276 0 14.2623 0 23.7726C0 33.2828 7.70957 40.9924 17.2198 40.9924Z" fill="#EDBD6B"/>
<path d="M17.4147 37.0821L17.1963 36.71C13.86 31.0256 4.9943 18.9626 4.90475 18.8414L4.77686 18.6677L7.79735 15.6826L17.3586 22.359C23.3786 14.5471 28.9948 9.18158 32.6583 6.04831C36.6658 2.62084 39.2744 1.04294 39.3008 1.02782L39.3601 0.99231H44.4837L43.9943 1.42817C31.4073 12.6394 17.7643 36.4677 17.6284 36.7071L17.4147 37.0821Z" fill="#101010"/>
</svg>
