<svg width="35" height="35" viewBox="0 0 35 35" fill="none" xmlns="http://www.w3.org/2000/svg">
<path d="M32.5132 8.86033C31.4043 9.36439 30.2089 9.69564 28.9704 9.85405C30.2377 9.09076 31.2171 7.88101 31.6779 6.42644C30.4826 7.14652 29.1576 7.65059 27.7606 7.93862C26.6229 6.70007 25.0243 5.97998 23.2097 5.97998C19.8253 5.97998 17.0601 8.74512 17.0601 12.1583C17.0601 12.648 17.1177 13.1233 17.2186 13.5697C12.0915 13.3105 7.52616 10.8478 4.48739 7.11772C3.95453 8.02503 3.65209 9.09076 3.65209 10.2141C3.65209 12.36 4.73222 14.261 6.40283 15.3411C5.3803 15.3411 4.42979 15.0531 3.59448 14.621V14.6642C3.59448 17.6598 5.72594 20.1657 8.54869 20.7274C7.64243 20.9754 6.691 21.0099 5.76915 20.8282C6.16031 22.0559 6.92638 23.1302 7.95968 23.9C8.99298 24.6698 10.2415 25.0964 11.5299 25.1199C9.34601 26.8488 6.63901 27.7833 3.85371 27.7698C3.36405 27.7698 2.8744 27.741 2.38474 27.6834C5.12107 29.4405 8.37587 30.463 11.8611 30.463C23.2097 30.463 29.4457 21.0442 29.4457 12.8784C29.4457 12.6048 29.4456 12.3456 29.4312 12.0719C30.641 11.2078 31.6779 10.1133 32.5132 8.86033Z" fill="black"/>
</svg>
