<svg width="34" height="24" viewBox="0 0 34 24" fill="none" xmlns="http://www.w3.org/2000/svg">
<path d="M13.8192 16.5086L22.3456 11.5801L13.8192 6.65151V16.5086ZM32.8106 3.64508C33.0242 4.41722 33.172 5.45222 33.2706 6.76651C33.3856 8.08079 33.4349 9.21436 33.4349 10.2001L33.5334 11.5801C33.5334 15.1779 33.2706 17.8229 32.8106 19.5151C32.3999 20.9937 31.447 21.9465 29.9684 22.3572C29.1963 22.5708 27.7834 22.7187 25.6149 22.8172C23.4792 22.9322 21.5242 22.9815 19.717 22.9815L17.1049 23.0801C10.2213 23.0801 5.93344 22.8172 4.2413 22.3572C2.76273 21.9465 1.80987 20.9937 1.39916 19.5151C1.18559 18.7429 1.03773 17.7079 0.939157 16.3937C0.824157 15.0794 0.774871 13.9458 0.774871 12.9601L0.6763 11.5801C0.6763 7.98222 0.939157 5.33722 1.39916 3.64508C1.80987 2.16651 2.76273 1.21365 4.2413 0.802935C5.01344 0.589364 6.4263 0.441506 8.59487 0.342935C10.7306 0.227935 12.6856 0.178649 14.4927 0.178649L17.1049 0.0800781C23.9884 0.0800781 28.2763 0.342935 29.9684 0.802935C31.447 1.21365 32.3999 2.16651 32.8106 3.64508Z" fill="black"/>
</svg>
